<?xml version="1.0" standalone="no"?>
<!DOCTYPE svg PUBLIC "-//W3C//DTD SVG 1.1//EN" "http://www.w3.org/Graphics/SVG/1.1/DTD/svg11.dtd">
<svg xmlns="http://www.w3.org/2000/svg">
<metadata>Copyright (C) 2019 by original authors @ fontello.com</metadata>
<defs>
<font id="prymery" horiz-adv-x="1000" >
<font-face font-family="prymery" font-weight="400" font-stretch="normal" units-per-em="1000" ascent="850" descent="-150" />
<missing-glyph horiz-adv-x="1000" />
<glyph glyph-name="th" unicode="&#xe800;" d="M286 154v-108q0-22-16-37t-38-16h-178q-23 0-38 16t-16 37v108q0 22 16 38t38 15h178q23 0 38-15t16-38z m0 285v-107q0-22-16-38t-38-15h-178q-23 0-38 15t-16 38v107q0 23 16 38t38 16h178q23 0 38-16t16-38z m357-285v-108q0-22-16-37t-38-16h-178q-23 0-38 16t-16 37v108q0 22 16 38t38 15h178q23 0 38-15t16-38z m-357 571v-107q0-22-16-38t-38-16h-178q-23 0-38 16t-16 38v107q0 22 16 38t38 16h178q23 0 38-16t16-38z m357-286v-107q0-22-16-38t-38-15h-178q-23 0-38 15t-16 38v107q0 23 16 38t38 16h178q23 0 38-16t16-38z m357-285v-108q0-22-16-37t-38-16h-178q-22 0-38 16t-16 37v108q0 22 16 38t38 15h178q23 0 38-15t16-38z m-357 571v-107q0-22-16-38t-38-16h-178q-23 0-38 16t-16 38v107q0 22 16 38t38 16h178q23 0 38-16t16-38z m357-286v-107q0-22-16-38t-38-15h-178q-22 0-38 15t-16 38v107q0 23 16 38t38 16h178q23 0 38-16t16-38z m0 286v-107q0-22-16-38t-38-16h-178q-22 0-38 16t-16 38v107q0 22 16 38t38 16h178q23 0 38-16t16-38z" horiz-adv-x="1000" />

<glyph glyph-name="chart" unicode="&#xe801;" d="M833 392l125 0 0-459-125 0z m0 0m-583 291l125 0 0-750-125 0z m0 0m292 250l125 0 0-1000-125 0z m0 0m-584-750l125 0 0-250-125 0z m0 0" horiz-adv-x="1000" />

<glyph glyph-name="angle-right" unicode="&#xe802;" d="M326 333l-230-226c-9-9-24-9-33 0l-14 14c-9 9-9 24 0 33l200 196-200 196c-9 9-9 24 0 33l14 14c9 9 24 9 33 0l230-226c9-10 9-24 0-34z" horiz-adv-x="375" />

<glyph glyph-name="star" unicode="&#xe803;" d="M506 815l-127-258-285-42c-52-7-72-70-35-107l206-201-48-284c-9-51 45-90 90-66l256 134 255-134c45-24 99 15 90 66l-48 284 206 201c37 37 17 100-35 107l-285 42-127 258c-23 46-89 47-113 0z" horiz-adv-x="1125" />

<glyph glyph-name="menu-square" unicode="&#xe804;" d="M800-150l0 200 200 0 0-200-200 0z m0 600l200 0 0-200-200 0 0 200z m0 400l200 0 0-200-200 0 0 200z m-400-800l200 0 0-200-200 0 0 200z m0 400l200 0 0-200-200 0 0 200z m0 400l200 0 0-200-200 0 0 200z m-400-800l200 0 0-200-200 0 0 200z m0 400l200 0 0-200-200 0 0 200z m0 400l200 0 0-200-200 0 0 200z" horiz-adv-x="1000" />

<glyph glyph-name="paper-bag" unicode="&#xe805;" d="M875 572c-2 16-15 28-31 28h-156v63c0 103-85 187-188 187-103 0-187-84-187-187v-63h-157c-16 0-29-12-31-28l-62-688c-1-9 2-17 8-24 6-6 14-10 23-10h812c9 0 17 4 23 10 6 7 9 15 8 24l-62 688z m-500 91c0 68 56 125 125 125s125-57 125-125v-63h-250v63z m-247-751l57 626h128v-72c-19-10-32-30-32-53 0-35 28-63 63-63s62 28 62 63c0 23-12 43-31 53v72h250v-72c-19-10-31-30-31-53 0-35 28-63 62-63 35 0 63 28 63 63 0 23-13 43-31 53v72h127l57-626h-744z" horiz-adv-x="1000" />

<glyph glyph-name="angle-left" unicode="&#xe806;" d="M49 367l230 226c9 9 24 9 33 0l14-14c9-9 9-24 0-33l-200-196 200-196c9-9 9-24 0-33l-14-14c-9-9-24-9-33 0l-230 226c-9 10-9 24 0 34z" horiz-adv-x="375" />

<glyph glyph-name="ruble-sign" unicode="&#xe807;" d="M543 220c182 0 314 127 314 317 0 190-132 313-314 313l-373 0c-15 0-27-12-27-27l0-481-116 0c-15 0-27-12-27-27l0-68c0-15 12-27 27-27l116 0 0-84-116 0c-15 0-27-12-27-27l0-54c0-14 12-26 27-26l116 0 0-152c0-15 12-27 27-27l89 0c15 0 27 12 27 27l0 152 402 0c14 0 26 12 26 26l0 54c0 15-12 27-26 27l-402 0 0 84 257 0z m-257 508l236 0c118 0 192-71 192-191 0-120-74-195-194-195l-234 0 0 386z" horiz-adv-x="857" />

<glyph glyph-name="bars" unicode="&#xe808;" d="M0-150l0 200 1000 0 0-200-1000 0z m0 600l1000 0 0-200-1000 0 0 200z m0 400l1000 0 0-200-1000 0 0 200z" horiz-adv-x="1000" />

<glyph glyph-name="times" unicode="&#xe809;" d="M406 350l210 210c12 13 12 32 0 45l-49 48c-12 13-32 13-44 0l-210-210-211 210c-12 13-32 13-44 0l-49-48c-12-13-12-32 0-45l211-210-211-210c-12-13-12-32 0-44l49-49c12-12 32-12 44 0l211 210 210-210c12-12 32-12 44 0l49 49c12 12 12 31 0 44l-210 210z" horiz-adv-x="625" />

<glyph glyph-name="user" unicode="&#xe80a;" d="M854 204c-55 54-120 94-190 119 75 52 125 139 125 238 0 159-130 289-289 289s-289-130-289-289c0-99 50-186 125-238-70-25-135-65-190-119-94-95-146-220-146-354h78c0 233 189 422 422 422s422-189 422-422h78c0 134-52 259-146 354z m-354 146c-116 0-211 95-211 211s95 211 211 211c116 0 211-95 211-211s-95-211-211-211z" horiz-adv-x="1000" />

<glyph glyph-name="search" unicode="&#xe80b;" d="M993-91l-252 252c-4 5-10 7-16 7h-20c67 73 108 169 108 276 0 224-182 406-407 406s-406-182-406-406 182-406 406-406c107 0 203 41 276 107v-20c0-6 2-12 7-16l252-252c9-9 24-9 33 0l19 19c9 9 9 24 0 33z m-587 191c-190 0-343 154-343 344s153 344 343 344 344-154 344-344-154-344-344-344z" horiz-adv-x="1000" />

<glyph glyph-name="th-list" unicode="&#xe80c;" d="M400-150l0 200 600 0 0-200-600 0z m0 600l600 0 0-200-600 0 0 200z m0 400l600 0 0-200-600 0 0 200z m-400-800l200 0 0-200-200 0 0 200z m0 400l200 0 0-200-200 0 0 200z m0 400l200 0 0-200-200 0 0 200z" horiz-adv-x="1000" />

<glyph glyph-name="bolt" unicode="&#xe80d;" d="M578 538h-225l83 253c8 30-15 59-45 59h-282c-23 0-43-17-46-41l-63-468c-3-28 19-53 47-53h232l-90-380c-7-30 15-58 45-58 16 0 32 9 41 23l344 594c18 31-5 71-41 71z m-304-541l66 276 18 77h-293l58 438h246l-76-231-27-82h285l-277-478z" horiz-adv-x="625" />

<glyph glyph-name="shoping-cart" unicode="&#xe80e;" d="M1032 262l92 406c7 29-16 57-46 57h-767l-18 88c-4 21-24 37-46 37h-200c-26 0-47-21-47-47v-31c0-26 21-47 47-47h136l138-671c-33-19-55-54-55-95 0-60 49-109 109-109s109 49 109 109c0 31-12 59-32 79h409c-20-20-33-48-33-79 0-60 49-109 110-109s109 49 109 109c0 44-25 81-62 99l11 47c7 30-16 58-46 58h-524l-13 62h573c22 0 41 15 46 37z" horiz-adv-x="1125" />

<glyph glyph-name="heart-outline" unicode="&#xe80f;" d="M903 728c-106 90-266 75-364-27l-39-40-38 40c-80 82-241 132-365 27-123-105-129-293-19-406l378-391c12-12 28-19 44-19 16 0 32 7 44 19l378 391c110 113 104 301-19 406z m-26-363l-376-390-378 390c-75 77-91 225 15 315 107 91 233 25 279-23l83-86 83 86c46 47 173 114 279 23 106-90 90-237 15-315z" horiz-adv-x="1000" />

<glyph glyph-name="star-outline" unicode="&#xe810;" d="M1031 515l-285 42-127 258c-23 46-89 47-113 0l-127-258-285-42c-52-7-72-70-35-107l206-201-48-284c-9-51 45-90 90-66l256 134 255-134c45-24 99 15 90 66l-48 284 206 201c37 37 17 100-35 107z m-238-286l54-316-284 149-285-150 55 317-230 224 317 46 143 289 142-289 318-46-230-224z" horiz-adv-x="1125" />

<glyph glyph-name="shoping-cart-outline" unicode="&#xe811;" d="M1078 725h-825l-17 87c-4 22-23 38-46 38h-167c-12 0-23-10-23-23v-16c0-13 11-23 23-23h154l137-729c-20-22-33-52-33-84 0-69 56-125 125-125s125 56 125 125a124 124 0 0 1-16 63h283a124 124 0 0 1-17-63c0-69 56-125 125-125 69 0 125 56 125 125 0 35-14 67-38 90-5 20-23 35-45 35h-578l-24 125h648c22 0 41 16 45 37l85 407c6 29-16 56-46 56z m-609-750c0-35-28-63-63-63s-62 28-62 63 28 63 62 63 63-28 63-63z m437-63c-34 0-62 28-62 63s28 63 62 63 63-28 63-63-28-63-63-63z m75 376h-646l-71 375h795l-78-375z" horiz-adv-x="1125" />

<glyph glyph-name="heart" unicode="&#xe812;" d="M903 728c-107 91-266 75-364-27l-39-39-38 39c-98 102-258 118-365 27-123-105-129-293-19-406l378-391c24-25 64-25 88 0l378 391c110 113 104 301-19 406z" horiz-adv-x="1000" />

<glyph glyph-name="password-change" unicode="&#xe813;" d="M286-79l0 72-143 0-143 0 0 428 0 429 349 0 349 0 0-181 0-182 48-10c65-14 137-86 156-156 37-134-66-280-198-280-27 0-58-11-69-24-11-13-33-24-50-24-19 0-29-11-29-32 0-21-11-32-32-32-23 0-32-10-32-39 0-39-4-40-103-40l-103 0 0 71z m143 32c0 29 8 40 31 40 22 0 32 10 32 32 0 24 11 31 46 31 25 0 55 12 66 25 13 16 34 22 57 16 55-14 143 29 171 84 37 72 31 122-24 184-41 47-60 56-112 56-35 0-77-7-94-16-41-22-78-98-78-162 0-43-16-69-87-139-71-70-88-96-88-138 0-45 6-53 40-53 32 0 40 8 40 40z m296 336c-6 6-11 20-11 32 0 24 41 29 55 7 11-17-30-53-44-39z m-348-150c46 46 83 89 83 95 0 7-89 13-198 13l-198 0 0-95 0-96 114 0 115 0 84 83z m99 197c0 33 101 133 134 133 14 0 25 13 25 32 0 30-11 32-286 32l-285 0 0-112 0-111 206 0c178 0 206 4 206 26z m159 355l0 96-286 0-285 0 0-96 0-95 285 0 286 0 0 95z" horiz-adv-x="910" />

<glyph glyph-name="personal-data" unicode="&#xe814;" d="M0 350l0 500 196 0c188 0 199-2 233-46 47-59 96-59 142 0 35 44 45 46 233 46l196 0 0-500 0-500-500 0-500 0 0 500z m926 0l0 426-149 0c-112 0-151-7-159-27-18-48-114-68-184-38-35 14-64 35-64 46 0 11-57 19-148 19l-148 0 0-426 0-426 426 0 426 0 0 426z m-626-142c-99 100-113 121-89 140 22 19 40 8 105-62 43-46 88-84 100-84 12 0 96 75 186 167 136 139 168 164 188 143 20-20-10-58-175-223l-199-198-116 117z" horiz-adv-x="1000" />

<glyph glyph-name="contacts" unicode="&#xe815;" d="M49-48c0 90 5 102 37 102 30 0 37-12 37-65l0-64 333 0 333 0 0 425 0 425-333 0-333 0 0-101 0-102-61 0c-43 0-62 9-62 28 0 15 11 27 25 27 18 0 24 31 24 112l0 111 408-5 407-5 0-490 0-490-407-5-408-5 0 102z m-47 232c0 20 11 37 24 37 13 0 23 16 23 37 0 24 13 37 37 37 31 0 37-13 37-74 0-72-2-74-60-74-49 0-61 7-61 37z m258-8c6 16 11 35 11 43 0 7 18 32 39 54 30 33 34 47 16 68-12 15-21 58-21 96 0 52 12 79 49 111 102 89 254 22 254-111 0-38-10-81-22-96-17-21-14-35 17-68 21-22 38-47 38-54 0-8 5-27 11-43 18-47-55-36-76 12-10 22-41 54-69 69-46 25-56 25-102 0-28-15-59-47-69-69-21-48-94-59-76-12z m266 196c29 29 29 94 0 122-28 29-111 29-140 0-29-28-29-93 0-122 29-28 112-28 140 0z m-515-17c-14 44-9 69 12 69 16 0 26 19 26 46 0 34 10 46 37 46 32 0 37-12 37-83 0-80-2-83-55-83-31 0-56 2-57 5z" horiz-adv-x="864" />

<glyph glyph-name="order-history" unicode="&#xe816;" d="M557-117c0 19 11 34 25 34 18 0 25 19 25 72 0 49 11 88 34 117l35 44-35 44c-23 29-34 68-34 117 0 53-7 72-25 72-14 0-25 15-25 34 0 31 11 33 225 33 213 0 225-2 225-33 0-19-12-34-25-34-19 0-25-19-25-72 0-49-12-88-35-117l-35-44 35-44c23-29 35-68 35-117 0-53 6-72 25-72 13 0 25-15 25-34 0-31-12-33-225-33-214 0-225 2-225 33z m176 75c42 45 80 42 108-10 9-17 28-31 41-31 38 0 31 104-10 156-75 95-215 30-215-100 0-67 23-72 76-15z m139 269c19 25 35 69 35 100l0 56-125 0-125 0 0-56c0-80 54-144 125-144 40 0 65 12 90 44z m-137 17c-31 30-9 56 48 56 47 0 58-6 54-29-6-30-80-50-102-27z m-679-163c-43 35-76 200-42 213 11 4 131 5 268 2 222-4 250-7 255-33 5-27-15-30-238-30-231 0-242-1-242-33 0-18 15-48 33-67 30-30 55-33 249-33 186 0 215-4 207-25-8-20-50-25-231-25-190 0-227 4-259 31z m101 519l0 250 325 0 325 0 0-175c0-142-5-175-25-175-19 0-25 31-29 146l-5 146-266 0-267 0-5-221c-4-181-9-221-29-221-20 0-24 41-24 250z m150-150c0 19 11 33 25 33 13 0 25-14 25-33 0-18-12-33-25-33-14 0-25 15-25 33z m150 0c0 18 7 33 16 33 9 0 17-15 17-33 0-18-8-33-17-33-9 0-16 15-16 33z m-150 150c0 19 11 33 25 33 13 0 25-14 25-33 0-18-12-33-25-33-14 0-25 15-25 33z m150 0c0 30 11 33 100 33 88 0 100-3 100-33 0-30-12-33-100-33-89 0-100 3-100 33z" horiz-adv-x="1006" />

<glyph glyph-name="check-circle" unicode="&#xe817;" d="M500 834c-267 0-484-216-484-484s217-484 484-484 484 217 484 484-216 484-484 484z m0-906c-232 0-422 188-422 422 0 232 188 422 422 422 232 0 422-188 422-422 0-232-188-422-422-422z m277 537l-353-349c-9-10-24-10-33 0l-168 169c-9 9-9 24 0 33l17 16c9 10 24 9 33 0l135-136 319 317c9 9 24 9 33 0l17-17c9-9 9-24 0-33z" horiz-adv-x="1000" />
</font>
</defs>
</svg>
